<svg height="512pt" viewBox="0 0 512 512" width="512pt" xmlns="http://www.w3.org/2000/svg"><path d="m361 39.300781v110.699219h-325.199219l-35.800781-30v-26.398438l196-56.703124 117-34.199219 18-2.699219zm0 0" fill="#fdbf00"/><path d="m361 39.300781v110.699219h-165v-113.101562l117-34.199219 18-2.699219zm0 0" fill="#ff9100"/><path d="m392 60v452h-392v-392h331c-33 0-60-27-60-60s27-60 60-60 61 27 61 60zm0 0" fill="#efeff4"/><path d="m392 60v452h-196v-392h135c-33 0-60-27-60-60s27-60 60-60 61 27 61 60zm0 0" fill="#dadae5"/><path d="m301 316c0-2.699219 0-5.699219-.300781-8.402344l30.300781-20.097656-45-78-30.601562 20.398438c-4.796876-3.300782-9.300782-6-14.398438-8.398438v-40.5h-90v40.5c-5.097656 2.398438-9.601562 5.097656-14.398438 8.398438l-30.601562-20.398438-45 78 30.300781 20.097656c-.300781 2.703125-.300781 5.703125-.300781 8.402344s0 5.699219.300781 8.398438l-30.300781 20.101562 45 78 30.601562-20.402344c4.796876 3.300782 9.300782 6 14.398438 8.398438v40.503906h90v-40.5c5.097656-2.398438 9.601562-5.101562 14.398438-8.398438l30.601562 20.398438 45-78-30.300781-20.101562c.300781-2.699219.300781-5.699219.300781-8.398438zm-105 45c-24.902344 0-45-20.101562-45-45 0-24.902344 20.097656-45 45-45s45 20.097656 45 45c0 24.898438-20.097656 45-45 45zm0 0" fill="#fdbf00"/><path d="m300.699219 324.398438 30.300781 20.101562-45 78-30.601562-20.398438c-4.796876 3.296876-9.300782 6-14.398438 8.398438v40.5h-45v-90c24.902344 0 45-20.101562 45-45 0-24.902344-20.097656-45-45-45v-90h45v40.5c5.097656 2.398438 9.601562 5.097656 14.398438 8.398438l30.601562-20.398438 45 78-30.300781 20.097656c.300781 2.703125.300781 5.699219.300781 8.402344 0 2.699219 0 5.699219-.300781 8.398438zm0 0" fill="#ff9100"/><path d="m512 150v211l-30 30h-30l-30-30v-211l30-30h30zm0 0" fill="#ff637b"/><path d="m512 150v211l-30 30h-15v-271h15zm0 0" fill="#e63950"/><path d="m512 361v15l-45 116.5-45-116.5v-15zm0 0" fill="#fed2a4"/><path d="m467 361h45v15l-45 116.5zm0 0" fill="#ffbd86"/><path d="m422 90h90v60h-90zm0 0" fill="#676e74"/><path d="m467 90h45v60h-45zm0 0" fill="#474f54"/></svg>