<svg height="512pt" viewBox="0 0 512 512" width="512pt" xmlns="http://www.w3.org/2000/svg"><path d="m121 30h361v91h-361zm0 0" fill="#676e74"/><path d="m256 30h226v91h-226zm0 0" fill="#474f54"/><path d="m512 151v301h-512v-301l30-30h452zm0 0" fill="#676e74"/><path d="m512 151v301h-256v-331h226zm0 0" fill="#474f54"/><path d="m361 377c0-2.699219 0-5.699219-.300781-8.402344l30.300781-20.097656-45-78-30.601562 20.398438c-4.796876-3.300782-9.300782-6-14.398438-8.398438v-40.5h-90v40.5c-5.097656 2.398438-9.601562 5.097656-14.398438 8.398438l-30.601562-20.398438-45 78 30.300781 20.097656c-.300781 2.703125-.300781 5.703125-.300781 8.402344s0 5.699219.300781 8.398438l-30.300781 20.101562 45 78 30.601562-20.402344c4.796876 3.300782 9.300782 6 14.398438 8.398438v40.503906h90v-40.5c5.097656-2.398438 9.601562-5.101562 14.398438-8.398438l30.601562 20.398438 45-78-30.300781-20.101562c.300781-2.699219.300781-5.699219.300781-8.398438zm-105 45c-24.902344 0-45-20.101562-45-45 0-24.902344 20.097656-45 45-45s45 20.097656 45 45c0 24.898438-20.097656 45-45 45zm0 0" fill="#fdbf00"/><path d="m360.699219 385.398438 30.300781 20.101562-45 78-30.601562-20.398438c-4.796876 3.296876-9.300782 6-14.398438 8.398438v40.5h-45v-90c24.902344 0 45-20.101562 45-45 0-24.902344-20.097656-45-45-45v-90h45v40.5c5.097656 2.398438 9.601562 5.097656 14.398438 8.398438l30.601562-20.398438 45 78-30.300781 20.097656c.300781 2.703125.300781 5.699219.300781 8.402344 0 2.699219 0 5.699219-.300781 8.398438zm0 0" fill="#ff9100"/><path d="m512 91v60h-512v-151h176.800781l30 91zm0 0" fill="#fdbf00"/><path d="m256 91h256v60h-256zm0 0" fill="#ff9100"/></svg>