<svg height="470pt" viewBox="0 -3 470.38656 470" width="470pt" xmlns="http://www.w3.org/2000/svg"><path d="m456.800781 188.394531c16.214844 13.765625 18.199219 38.074219 4.429688 54.289063s-38.074219 18.199218-54.289063 4.429687c-.039062-.035156-.078125-.070312-.121094-.101562l-152.878906-130.519531c-10.8125-9.230469-26.730468-9.230469-37.542968 0l-152.886719 130.519531c-2.003907 1.714843-4.175781 3.214843-6.492188 4.472656-15.996093 8.777344-35.957031 5.121094-47.800781-8.761719-.027344-.039062-.070312-.070312-.097656-.109375-13.714844-16.199219-11.738282-40.445312 4.417968-54.210937l202.882813-172.800782c10.800781-9.199218 26.683594-9.199218 37.488281 0l71.050782 60.511719 66.121093 56.308594zm0 0" fill="#00acea"/><path d="m413.300781 251.484375-.449219.828125v164.128906c0 26.613282-21.570312 48.1875-48.179687 48.191406h-259c-26.613281-.003906-48.1875-21.578124-48.191406-48.191406v-164.128906l-.460938-.828125c2.316407-1.257813 4.488281-2.757813 6.492188-4.472656l152.886719-130.519531c10.8125-9.230469 26.730468-9.230469 37.542968 0l152.878906 130.519531c.042969.03125.082032.066406.121094.101562 1.96875 1.664063 4.097656 3.128907 6.359375 4.371094zm-175.601562 171.109375c78.902343-31.960938 105.53125-89.550781 97.160156-132.671875-5.828125-28.917969-26.378906-47.699219-53.019531-47.699219-14.710938 0-30.949219 6.089844-46.679688 17.511719-15.980468-11.929687-31.960937-18.011719-46.929687-18.011719-26.628907 0-47.179688 18.769532-52.761719 48.199219-8.378906 43.632813 18.519531 101.472656 97.160156 132.671875 1.621094.679688 3.449219.679688 5.070313 0zm0 0" fill="#00efd1"/><path d="m391.210938 33.203125v99.070313l-.128907.148437-66.121093-56.308594.230468-.269531v-42.640625c0-18.230469 14.777344-33.011719 33.007813-33.011719s33.011719 14.78125 33.011719 33.011719zm0 0" fill="#00efd1"/><path d="m334.859375 289.921875c8.371094 43.121094-18.257813 100.710937-97.160156 132.671875-1.621094.679688-3.449219.679688-5.070313 0-78.640625-31.199219-105.539062-89.039062-97.160156-132.671875 5.582031-29.429687 26.132812-48.199219 52.761719-48.199219 14.96875 0 30.949219 6.082032 46.929687 18.011719 15.730469-11.421875 31.96875-17.511719 46.679688-17.511719 26.640625 0 47.191406 18.78125 53.019531 47.699219zm0 0" fill="#fedb41"/></svg>