<svg id="Layer_1" enable-background="new 0 0 256 256" height="512" viewBox="0 0 256 256" width="512" xmlns="http://www.w3.org/2000/svg"><g><g><path d="m224.533 181.461h-209.066c-4.124 0-7.467-3.343-7.467-7.467v-126.933c0-4.124 3.343-7.467 7.467-7.467h209.067c4.124 0 7.467 3.343 7.467 7.467v126.933c-.001 4.124-3.344 7.467-7.468 7.467z" fill="#4671c6"/></g><g><path d="m66.997 88.439 7.854 15.913c.975 1.976 2.86 3.345 5.04 3.662l17.561 2.552c5.49.798 7.683 7.545 3.71 11.417l-12.709 12.387c-1.578 1.538-2.298 3.753-1.925 5.925l3 17.49c.938 5.468-4.802 9.638-9.712 7.056l-15.707-8.258c-1.95-1.025-4.28-1.025-6.23 0l-15.707 8.258c-4.911 2.582-10.65-1.588-9.712-7.056l3-17.49c.372-2.171-.347-4.387-1.925-5.925l-12.707-12.387c-3.973-3.873-1.781-10.62 3.71-11.417l17.561-2.552c2.18-.317 4.065-1.686 5.04-3.662l7.854-15.913c2.454-4.975 9.548-4.975 12.004 0z" fill="#ffea92"/></g><g><path d="m212.067 76.5h-188.268c-2.761 0-5-2.239-5-5v-13.839c0-2.761 2.239-5 5-5h188.268c2.761 0 5 2.239 5 5v13.839c0 2.761-2.239 5-5 5z" fill="#e0ebfc"/></g><g><path d="m210.067 113.867h-90.567c-3.866 0-7-3.134-7-7 0-3.866 3.134-7 7-7h90.567c3.866 0 7 3.134 7 7 0 3.866-3.134 7-7 7z" fill="#e0ebfc"/></g><g><path d="m210.067 140h-90.567c-3.866 0-7-3.134-7-7 0-3.866 3.134-7 7-7h90.567c3.866 0 7 3.134 7 7 0 3.866-3.134 7-7 7z" fill="#e0ebfc"/></g><g><path d="m224.533 183.461h-209.066c-5.22 0-9.467-4.247-9.467-9.467v-126.932c0-5.22 4.247-9.467 9.467-9.467h209.066c5.22 0 9.467 4.247 9.467 9.467v126.933c0 5.22-4.247 9.466-9.467 9.466zm-209.066-141.866c-3.014 0-5.467 2.453-5.467 5.467v126.933c0 3.014 2.453 5.467 5.467 5.467h209.066c3.014 0 5.467-2.453 5.467-5.467v-126.933c0-3.014-2.453-5.467-5.467-5.467z" fill="#3762cc"/></g><g><circle cx="212.683" cy="181.089" fill="#eaa97d" r="35.317"/></g><g><circle cx="212.683" cy="181.089" fill="#ffea92" r="25.601"/></g><g><path d="m214.057 159.049v2.425c1.601.165 2.975.494 4.12.988 1.146.494 2.145 1.242 2.998 2.245.673.763 1.193 1.549 1.561 2.357.366.808.55 1.549.55 2.223 0 .749-.273 1.396-.819 1.942-.547.547-1.209.82-1.987.82-1.467 0-2.417-.793-2.852-2.38-.494-1.871-1.684-3.113-3.57-3.727v9.34c1.856.509 3.334.973 4.434 1.392s2.084 1.025 2.953 1.819c.927.823 1.642 1.807 2.144 2.952.501 1.145.752 2.399.752 3.761 0 1.706-.4 3.304-1.201 4.793-.801 1.49-1.979 2.705-3.536 3.648s-3.405 1.504-5.545 1.684v5.59c0 .883-.087 1.527-.258 1.931-.172.404-.551.606-1.134.606-.539 0-.917-.165-1.134-.494s-.325-.838-.325-1.527v-6.062c-1.751-.195-3.282-.606-4.591-1.235-1.31-.629-2.402-1.411-3.278-2.346-.875-.935-1.523-1.908-1.942-2.919-.419-1.01-.629-2.002-.629-2.975 0-.718.281-1.366.842-1.942s1.26-.864 2.099-.864c.674 0 1.242.157 1.706.471s.786.756.966 1.325c.404 1.228.756 2.167 1.055 2.818s.753 1.246 1.358 1.785c.606.539 1.41.951 2.414 1.235v-10.44c-2.005-.554-3.682-1.171-5.029-1.852s-2.44-1.65-3.277-2.907c-.838-1.257-1.257-2.874-1.257-4.85 0-2.574.819-4.685 2.458-6.331s4.008-2.604 7.106-2.874v-2.38c0-1.257.472-1.886 1.414-1.886.955 0 1.434.614 1.434 1.841zm-2.851 15.401v-8.599c-1.257.374-2.237.868-2.941 1.482s-1.055 1.542-1.055 2.784c0 1.183.329 2.077.988 2.683.658.606 1.661 1.156 3.008 1.65zm2.851 6.668v9.834c1.512-.299 2.679-.905 3.502-1.819.823-.913 1.235-1.976 1.235-3.188 0-1.302-.4-2.309-1.201-3.02-.8-.71-1.979-1.313-3.536-1.807z" fill="#eaa97d"/></g><g><path d="m212.683 218.405c-20.576 0-37.316-16.74-37.316-37.316 0-20.577 16.74-37.317 37.316-37.317 20.577 0 37.317 16.74 37.317 37.317 0 20.576-16.74 37.316-37.317 37.316zm0-70.633c-18.371 0-33.316 14.946-33.316 33.317s14.946 33.316 33.316 33.316c18.371 0 33.317-14.946 33.317-33.316 0-18.371-14.946-33.317-33.317-33.317z" fill="#3762cc"/></g></g></svg>