<svg height="512pt" viewBox="0 0 512 512" width="512pt" xmlns="http://www.w3.org/2000/svg"><path d="m0 0v151h151v81.300781l81.300781-81.300781h38.699219v-151zm0 0" fill="#ffda2d"/><path d="m271 0v151h-38.699219l-81.300781 81.300781v-81.300781h-45v-151zm0 0" fill="#fdbf00"/><path d="m352.300781 361-81.300781-81.300781v81.300781h-30v151h271v-151zm0 0" fill="#ffda2d"/><path d="m406 361h106v151h-106zm0 0" fill="#fdbf00"/><path d="m406 151c-57.898438 0-105 47.101562-105 105v45h211v-45c0-57.898438-48.101562-105-106-105zm0 0" fill="#f27281"/><path d="m512 256v45h-106v-150c57.898438 0 106 47.101562 106 105zm0 0" fill="#e63950"/><path d="m406 0c-41.398438 0-75 34.601562-75 76s33.601562 75 75 75 75-33.601562 75-75-33.601562-76-75-76zm0 0" fill="#f27281"/><path d="m406 151v-151c41.398438 0 75 34.601562 75 76s-33.601562 75-75 75zm0 0" fill="#e63950"/><path d="m421 421h30v30h-30zm0 0" fill="#465a61"/><path d="m361 421h30v30h-30zm0 0" fill="#596c76"/><path d="m301 421h30v30h-30zm0 0" fill="#596c76"/><path d="m106 211c-41.398438 0-75 33.601562-75 75s33.601562 75 75 75 75-33.601562 75-75-33.601562-75-75-75zm0 0" fill="#979fef"/><path d="m106 361c-57.898438 0-106 47.101562-106 105v46h211v-46c0-57.898438-47.101562-105-105-105zm0 0" fill="#979fef"/><path d="m106 361v-150c41.398438 0 75 33.601562 75 75s-33.601562 75-75 75zm0 0" fill="#737ee6"/><path d="m211 466v46h-105v-151c57.898438 0 105 47.101562 105 105zm0 0" fill="#737ee6"/><path d="m61 61h30v30h-30zm0 0" fill="#596c76"/><g fill="#465a61"><path d="m121 61h30v30h-30zm0 0"/><path d="m181 61h30v30h-30zm0 0"/></g></svg>