<?xml version="1.0" encoding="iso-8859-1"?>
<!-- Generator: Adobe Illustrator 19.0.0, SVG Export Plug-In . SVG Version: 6.00 Build 0)  -->
<svg version="1.1" id="Capa_1" xmlns="http://www.w3.org/2000/svg" xmlns:xlink="http://www.w3.org/1999/xlink" x="0px" y="0px"
	 viewBox="0 0 468.294 468.294" style="enable-background:new 0 0 468.294 468.294;" xml:space="preserve">
<path style="fill:#64798A;" d="M468.294,261.906v-55.521l-31.533-3.628c-18.395-2.117-34.063-14.258-40.789-31.51
	c-0.895-2.296-1.838-4.568-2.827-6.816c-7.494-17.033-5.106-36.775,6.462-51.352l19.736-24.869L380.085,48.95l-24.868,19.736
	c-14.577,11.568-34.32,13.957-51.353,6.462c-2.248-0.989-4.52-1.932-6.816-2.827c-17.251-6.725-29.393-22.393-31.51-40.787
	l-3.629-31.533h-55.521l-3.629,31.532c-2.117,18.394-14.257,34.062-31.508,40.787c-2.299,0.896-4.575,1.84-6.826,2.831
	c-17.033,7.496-36.776,5.108-51.353-6.46L88.205,48.958L48.947,88.217l19.736,24.868c11.568,14.576,13.957,34.318,6.462,51.352
	c-0.989,2.248-1.932,4.52-2.827,6.816c-6.725,17.251-22.392,29.393-40.787,31.511L0,206.394l0,55.52l31.536,3.629
	c18.394,2.117,34.062,14.258,40.787,31.509c0.895,2.295,1.837,4.567,2.826,6.813c7.495,17.033,5.107,36.776-6.461,51.353
	l-19.736,24.87l39.259,39.258l24.871-19.737c14.576-11.567,34.318-13.955,51.35-6.462c2.247,0.989,4.519,1.931,6.815,2.826
	c17.252,6.725,29.394,22.393,31.511,40.788l3.629,31.532h55.521l3.629-31.533c2.117-18.394,14.258-34.063,31.51-40.787
	c2.297-0.895,4.569-1.838,6.817-2.827c17.033-7.495,36.775-5.107,51.352,6.461l24.87,19.736l39.258-39.259l-19.736-24.869
	c-11.568-14.577-13.956-34.319-6.462-51.353c0.989-2.248,1.932-4.52,2.827-6.817c6.725-17.251,22.393-29.393,40.787-31.51
	L468.294,261.906z"/>
<circle style="fill:#E1E6E9;" cx="234.147" cy="234.147" r="124.878"/>
<circle style="fill:#64798A;" cx="234.147" cy="234.147" r="49.951"/>
<g>
</g>
<g>
</g>
<g>
</g>
<g>
</g>
<g>
</g>
<g>
</g>
<g>
</g>
<g>
</g>
<g>
</g>
<g>
</g>
<g>
</g>
<g>
</g>
<g>
</g>
<g>
</g>
<g>
</g>
</svg>
