<svg height="412pt" viewBox="0 0 412 412" width="412pt" xmlns="http://www.w3.org/2000/svg"><path d="m391.824219 209.539062c1.542969-2.109374 1.542969-4.96875 0-7.078124-.839844-1.148438-20.945313-28.488282-53.6875-56.222657-43.714844-37.027343-89.070313-56.597656-131.15625-56.597656-42.085938 0-87.441407 19.574219-131.15625 56.597656-32.742188 27.734375-52.847657 55.074219-53.6875 56.222657-1.542969 2.109374-1.542969 4.96875 0 7.078124.839843 1.148438 20.945312 28.488282 53.6875 56.222657 43.714843 37.027343 89.070312 56.597656 131.15625 56.597656 42.085937 0 87.441406-19.574219 131.15625-56.597656 32.742187-27.734375 52.847656-55.074219 53.6875-56.222657zm-308.039063 47.238282c-18.007812-15.296875-34.5-32.304688-49.238281-50.777344 14.707031-18.621094 87.085937-104.367188 172.433594-104.367188 49.449219 0 94.285156 29.140626 123.195312 53.585938 18.007813 15.300781 34.5 32.304688 49.238281 50.78125-14.707031 18.621094-87.085937 104.367188-172.433593 104.367188-49.449219-.003907-94.285157-29.144532-123.195313-53.589844zm0 0"/><path d="m206.980469 123.214844c-45.722657 0-82.785157 37.066406-82.785157 82.785156 0 45.722656 37.066407 82.785156 82.785157 82.785156 45.722656 0 82.785156-37.0625 82.785156-82.785156-.050781-45.699219-37.085937-82.734375-82.785156-82.785156zm0 153.570312c-39.09375 0-70.785157-31.691406-70.785157-70.785156s31.691407-70.785156 70.785157-70.785156 70.785156 31.691406 70.785156 70.785156c-.042969 39.074219-31.710937 70.742188-70.785156 70.785156zm0 0"/><path d="m115.375 0h-109.375c-3.3125 0-6 2.6875-6 6v109.375c0 3.3125 2.6875 6 6 6s6-2.6875 6-6v-103.375h103.375c3.3125 0 6-2.6875 6-6s-2.6875-6-6-6zm0 0"/><path d="m412 6c0-3.3125-2.6875-6-6-6h-109.375c-3.3125 0-6 2.6875-6 6s2.6875 6 6 6h103.375v103.375c0 3.3125 2.6875 6 6 6s6-2.6875 6-6zm0 0"/><path d="m412 406v-109.375c0-3.3125-2.6875-6-6-6s-6 2.6875-6 6v103.375h-103.375c-3.3125 0-6 2.6875-6 6s2.6875 6 6 6h109.375c3.3125 0 6-2.6875 6-6zm0 0"/><path d="m0 406c0 3.3125 2.6875 6 6 6h109.375c3.3125 0 6-2.6875 6-6s-2.6875-6-6-6h-103.375v-103.375c0-3.3125-2.6875-6-6-6s-6 2.6875-6 6zm0 0"/></svg>